<svg xmlns="http://www.w3.org/2000/svg" width="734.406" height="238.281" viewBox="0 0 734.406 238.281"><defs><style>.cls-1, .cls-2 { fill: #690; } .cls-1, .cls-2, .cls-3, .cls-4 { fill-rule: evenodd; } .cls-1 { filter: url(#filter); } .cls-2 { filter: url(#filter-2); } .cls-3 { fill: #16474c; filter: url(#filter-3); } .cls-4 { fill: #fff; filter: url(#filter-4); }</style><filter id="filter" x="389.75" y="337.094" width="223.188" height="95.718" filterUnits="userSpaceOnUse"><feFlood result="flood"/><feComposite result="composite" operator="in" in2="SourceGraphic"/><feBlend result="blend" in2="SourceGraphic"/></filter><filter id="filter-2" x="172.688" y="337.094" width="200.093" height="96" filterUnits="userSpaceOnUse"><feFlood result="flood" flood-color="#fff"/><feComposite result="composite" operator="in" in2="SourceGraphic"/><feBlend result="blend" in2="SourceGraphic"/></filter><filter id="filter-3" x="643.094" y="266.219" width="264" height="238.281" filterUnits="userSpaceOnUse"><feFlood result="flood" flood-color="#fff"/><feComposite result="composite" operator="in" in2="SourceGraphic"/><feBlend result="blend" in2="SourceGraphic"/></filter><filter id="filter-4" x="669.75" y="336.25" width="208.719" height="96.781" filterUnits="userSpaceOnUse"><feFlood result="flood" flood-color="#690"/><feComposite result="composite" operator="in" in2="SourceGraphic"/><feBlend result="blend" in2="SourceGraphic"/></filter></defs><path id="redibids_copy" class="cls-1" d="M442.426 383.525q-7.057-8.173-19.063-8.175-11.708 0-17.111 7.2v-45.45h-16.511v94.2h16.511v-5.55q2.4 3 7.655 4.8a26.867 26.867 0 0 0 9.006 1.65q11.854 0 19.363-8.4 7.2-7.949 7.2-19.95.004-12.15-7.05-20.325zm-13.059 8.925a19.2 19.2 0 0 1 3.3 11.4 18.926 18.926 0 0 1-3.3 11.25 11.8 11.8 0 0 1-10.207 5.4q-3.151 0-8.03-3.375t-4.878-6.375v-12.3q0-3.6 4.653-7.425t8.255-3.825a11.9 11.9 0 0 1 10.207 5.25zm49.908-25.95a8.608 8.608 0 0 0 2.627-6.45 8.863 8.863 0 0 0-2.627-6.525 9.154 9.154 0 0 0-12.833 0 8.988 8.988 0 0 0-2.552 6.525 8.8 8.8 0 0 0 2.552 6.375 8.612 8.612 0 0 0 6.454 2.625 8.815 8.815 0 0 0 6.379-2.55zm1.876 64.8v-55.2h-16.511v55.2h16.511zm74.3 0v-94.2h-16.363v45.45q-3.9-7.2-17.262-7.2-11.859 0-18.987 8.1t-7.13 20.1q0 12.15 7.28 20.4t19.288 8.25a28.192 28.192 0 0 0 9.156-1.65q5.4-1.8 7.655-4.8v5.55h16.361zm-16.361-22.05q0 3.9-4.578 7.575t-8.481 3.675a11.8 11.8 0 0 1-10.207-5.4 18.912 18.912 0 0 1-3.3-11.25 19.181 19.181 0 0 1 3.3-11.4 11.9 11.9 0 0 1 10.207-5.25q4.5 0 8.781 4.125t4.278 8.625v9.3zm67.693 19.35q6.153-4.8 6.154-13.65 0-8.1-7.2-12.3-.45-.3-13.209-5.25-7.2-2.847-7.2-7.35 0-2.25 2.882-3.75a9.919 9.919 0 0 1 4.857-1.35q5.46 0 6.07 5.4h13.809q-.151-7.572-6.956-11.667a26.457 26.457 0 0 0-13.76-3.333q-8.468 0-14.063 4.35a15.2 15.2 0 0 0-6.048 12.75q0 7.8 6.9 12.15.452.3 12.759 5.4 6.755 2.851 6.754 7.2a4.355 4.355 0 0 1-2.476 3.75 9.375 9.375 0 0 1-4.879 1.5q-5.853 0-6.754-6h-14.116q0 7.953 7.2 12.45a26.347 26.347 0 0 0 14.41 3.9q9.3 0 14.86-4.2z" transform="translate(-172.688 -266.219)"/><path id="redibids_copy_2" class="cls-2" d="M189.512 398.3q0-10.5 6.905-10.5v-12.9h-1.2q-10.358 0-16.436 5.7t-6.081 15.9v34.95h16.811v-33.15zm77.452 10.65q0-15.148-7.655-24.15-8.258-9.749-22.966-9.75-13.509 0-21.989 7.875t-8.481 21.225q0 12.9 8.481 20.925t21.389 8.025a37.52 37.52 0 0 0 18.462-4.65 27.953 27.953 0 0 0 12.759-13.8l-17.712.15q0 2.852-4.953 4.95a18.626 18.626 0 0 1-7.5 1.8 12.953 12.953 0 0 1-9.006-3.75 16.32 16.32 0 0 1-5.1-8.85h44.28zm-43.829-10.35a18.167 18.167 0 0 1 4.728-9 11.79 11.79 0 0 1 8.78-3.6 12.628 12.628 0 0 1 9.006 3.75 16.675 16.675 0 0 1 4.5 8.85h-27.014zm116.176 32.7v-94.2h-16.361v45.45q-3.9-7.2-17.261-7.2-11.859 0-18.988 8.1t-7.13 20.1q0 12.15 7.28 20.4t19.288 8.25a28.188 28.188 0 0 0 9.156-1.65q5.4-1.8 7.655-4.8v5.55h16.361zm-16.361-22.05q0 3.9-4.578 7.575t-8.48 3.675a11.8 11.8 0 0 1-10.207-5.4 18.912 18.912 0 0 1-3.3-11.25 19.181 19.181 0 0 1 3.3-11.4 11.894 11.894 0 0 1 10.207-5.25q4.5 0 8.78 4.125t4.278 8.625v9.3zm47.2-42.75a8.611 8.611 0 0 0 2.626-6.45 8.866 8.866 0 0 0-2.626-6.525 9.156 9.156 0 0 0-12.834 0 8.988 8.988 0 0 0-2.552 6.525 8.8 8.8 0 0 0 2.552 6.375 8.612 8.612 0 0 0 6.454 2.625 8.817 8.817 0 0 0 6.385-2.55zm1.876 64.8v-55.2h-16.506v55.2h16.511z" transform="translate(-172.688 -266.219)"/><g id="icon"><path id="Shape_9_copy_2" class="cls-3" d="M734.399 180.688c-84 128.376-171-61.375-264 57.6v-180.683c84-128.376 171 61.376 264-57.6v180.683z"/><path id="GO_copy" class="cls-4" d="M755.719 417.975q12.432-14 12.433-37.975h-47.807v15.4h27.318q-2.461 8.577-11.243 13.825a32.358 32.358 0 0 1-17.391 4.9 25.5 25.5 0 0 1-19.586-8.75 29.381 29.381 0 0 1-7.992-20.475 32.088 32.088 0 0 1 7.637-21.437q7.638-9.012 19.927-9.013 8.957 0 13.7 2.625 4.215 2.452 9.659 9.975l15.976-13.65q-17.689-17.148-39.226-17.15t-35.461 13.563q-13.922 13.563-13.921 35.087 0 21.353 13.921 34.563t35.461 13.212q23.464 0 36.6-14.7zm38.261 1.575q13.921 13.478 35.286 13.475t35.286-13.387q13.921-13.387 13.922-34.738t-13.922-34.737q-13.922-13.388-35.286-13.388-21.54 0-35.374 13.388t-13.834 34.737q0 21.177 13.922 34.65zm15.282-55.825q7.49-8.4 20-8.4 12.69 0 20.092 8.4t7.4 21.175q0 12.6-7.226 21-7.758 8.753-20.267 8.75t-20-8.575q-7.491-8.572-7.489-21.175.001-12.772 7.49-21.175z" transform="translate(-172.688 -266.219)"/></g></svg>